Coordinates
nRows=6
nColumns=38

# SIMM Motion File Header:
name Coordinates
datacolumns 38
datarows 6
otherdata 1
range 2.26480000000000010000 2.26980000000000000000

Units are S.I. units (second, meters, Newtons, ...)
Angles are in degrees.

endheader
time	pelvis_tilt	pelvis_list	pelvis_rotation	pelvis_tx	pelvis_ty	pelvis_tz	hip_flexion_r	hip_adduction_r	hip_rotation_r	knee_angle_r	ankle_angle_r	subtalar_angle_r	mtp_angle_r	hip_flexion_l	hip_adduction_l	hip_rotation_l	knee_angle_l	ankle_angle_l	subtalar_angle_l	mtp_angle_l	lumbar_extension	lumbar_bending	lumbar_rotation	arm_flex_r	arm_add_r	arm_rot_r	elbow_flex_r	pro_sup_r	wrist_flex_r	wrist_dev_r	arm_flex_l	arm_add_l	arm_rot_l	elbow_flex_l	pro_sup_l	wrist_flex_l	wrist_dev_l
      2.26480000000000010000	     -2.99851569899051550000	      5.27801935238550610000	      0.81303824503739508000	      0.94977062525413170000	      0.93851101239422152000	     -0.33357212058112118000	     49.41034967845752800000	     -5.50617393455625680000	      3.61458784414582950000	   -122.59781396271813000000	      5.10456854794180440000	      0.00000000000012374647	      0.00000000000027951251	      1.27671272867051910000	     14.41592813015265600000	      5.70431837323381250000	    -32.15451223852977600000	     21.54366649679699100000	      0.00000000000003629212	     -0.00000000000005296348	    -11.33011836638529800000	     -4.70205957184135850000	    -18.94202700309697100000	    -38.03561613097332400000	    -24.92220910678141600000	     -0.28087339540819156000	     62.01215081174400700000	    105.93146610649845000000	      0.00000000000003569213	      0.00000000000006334175	    -23.82075585553957000000	    -24.16297156628268200000	     -4.04560571330036560000	    111.65700559687983000000	    117.48922733744917000000	     -0.00000000000003470685	     -0.00000000000008076784
      2.26580000000000000000	     -3.00587231667138830000	      5.15129551542719800000	      0.74081984126262879000	      0.95015480752251069000	      0.93916962335281307000	     -0.33339735592728553000	     49.58568213570524100000	     -5.28291964532146710000	      3.59956401886661360000	   -122.17625306562287000000	      5.19519551774748930000	      0.00000000000012379291	      0.00000000000028013786	      0.78429970466563292000	     14.24636082254052700000	      5.82440179035930150000	    -31.70500326242448000000	     21.26519533822062900000	      0.00000000000003657929	     -0.00000000000005367566	    -11.24853799520548800000	     -4.55340271004002780000	    -18.97488846047905400000	    -38.23784140107980500000	    -25.00641883909432700000	     -0.30103870471253019000	     62.15970146032304900000	    105.83152799076765000000	      0.00000000000003579845	      0.00000000000006366931	    -23.75948774735376600000	    -24.14025405870865300000	     -4.00808026257080390000	    111.80857308784984000000	    117.50862899668336000000	     -0.00000000000003478791	     -0.00000000000008097359
      2.26679999999999990000	     -3.01323551287279480000	      5.02304875848679980000	      0.67021576651439652000	      0.95054628132975605000	      0.93983650804582242000	     -0.33322190301102111000	     49.75468626934502900000	     -5.06004327681119030000	      3.58051267659111040000	   -121.74804054139972000000	      5.28557551194548750000	      0.00000000000012384037	      0.00000000000028076250	      0.29143966595160387000	     14.07487095100559000000	      5.94548152940309470000	    -31.25259900848206100000	     20.97170611627232600000	      0.00000000000003693743	     -0.00000000000005440702	    -11.16639376380203300000	     -4.40287397497509140000	    -19.00834615391329400000	    -38.44170417913547800000	    -25.09020502547786400000	     -0.32191639189314164000	     62.31001609387655500000	    105.73083644911721000000	      0.00000000000003589762	      0.00000000000006397642	    -23.70080433927628900000	    -24.11718042315870400000	     -3.96947674931637850000	    111.95997259047992000000	    117.52742022202831000000	     -0.00000000000003486857	     -0.00000000000008118000
      2.26779999999999980000	     -3.02059673408117570000	      4.89331030062325920000	      0.60117636447294120000	      0.95094482788025247000	      0.94051140317982374000	     -0.33304564485476756000	     49.91745629874640100000	     -4.83753681560447820000	      3.55758561818417010000	   -121.31328699308048000000	      5.37564767609893400000	      0.00000000000012387491	      0.00000000000028138638	     -0.20171168261300401000	     13.90143109324698600000	      6.06732675868767400000	    -30.79749401169754800000	     20.66306661313450000000	      0.00000000000003732840	     -0.00000000000005511123	    -11.08372303808883300000	     -4.25052689018303820000	    -19.04237000696475200000	    -38.64715305002619100000	    -25.17350666923997000000	     -0.34359099859402015000	     62.46297447014136800000	    105.62971525940770000000	      0.00000000000003599262	      0.00000000000006424866	    -23.64469848058778500000	    -24.09378706985141200000	     -3.92984000567026910000	    112.11120651280083000000	    117.54567355753170000000	     -0.00000000000003494925	     -0.00000000000008138559
      2.26880000000000010000	     -3.02795040238929140000	      4.76211274542952000000	      0.53365144014944554000	      0.95135022755479093000	      0.94119403864093354000	     -0.33286845931462916000	     50.07409124900724600000	     -4.61538905982620220000	      3.53093829142259090000	   -120.87210106561437000000	      5.46534938908536820000	      0.00000000000012390268	      0.00000000000028200966	     -0.69500061189434093000	     13.72601458758100500000	      6.18969972107358580000	    -30.33987212675572200000	     20.33915589538143500000	      0.00000000000003770245	     -0.00000000000005583500	    -11.00055955638269000000	     -4.09641781626172110000	    -19.07693022868157600000	    -38.85413466690631900000	    -25.25626348903077900000	     -0.36614192090206810000	     62.61845814051920900000	    105.52848199579988000000	      0.00000000000003607412	      0.00000000000006451844	    -23.59116312459332600000	    -24.07011300216936100000	     -3.88921563974092740000	    112.26227795993415000000	    117.56346692051910000000	     -0.00000000000003502967	     -0.00000000000008159036
      2.26980000000000000000	     -3.03529396034439400000	      4.62949010358613580000	      0.46759055668840172000	      0.95176226010674947000	      0.94188413759112322000	     -0.33269021982168612000	     50.22469469838547700000	     -4.39358590604989900000	      3.50072950560551230000	   -120.42458936761744000000	      5.55461686828429270000	      0.00000000000012390528	      0.00000000000028263092	     -1.18827543930083920000	     13.54859591086883200000	      6.31235673135490400000	    -29.87990684492453800000	     19.99986790946011100000	      0.00000000000003803790	     -0.00000000000005658999	    -10.91693339252183700000	     -3.94060582871639920000	    -19.11199751029610300000	    -39.06259370976748400000	    -25.33841607667869400000	     -0.38964325732104660000	     62.77635042791064300000	    105.42744649893073000000	      0.00000000000003615168	      0.00000000000006480317	    -23.54019122387138600000	    -24.04619961364460300000	     -3.84764980988006930000	    112.41319052650826000000	    117.58088293728635000000	     -0.00000000000003511083	     -0.00000000000008179449
